<svg xmlns="http://www.w3.org/2000/svg" width="3972" height="2098" viewBox="0 0 3972 2098" version="1.1"><path d="M -0 226.607 L -0 453.214 1.468 452.651 L 2.936 452.087 3.493 452.989 C 3.800 453.486, 4.432 458.991, 4.897 465.223 L 5.742 476.555 8.745 482.182 L 11.747 487.808 12.462 496.381 L 13.176 504.954 14.939 507.227 C 18.250 511.496, 19.261 514.356, 20.099 521.828 L 20.937 529.301 23.491 532.988 C 26.356 537.121, 27.993 542.008, 28.015 546.493 C 28.030 549.519, 28.883 551.448, 32.420 556.452 L 34.340 559.168 35.689 566.299 L 37.037 573.429 39.330 575.965 C 42.238 579.180, 44 583.307, 44 586.901 L 44 589.708 46.482 592.386 C 49.927 596.103, 51 598.371, 51 601.931 L 51 604.994 54.591 608.970 L 58.183 612.945 58.729 617.018 L 59.275 621.090 62.162 623.795 L 65.049 626.500 66.496 631.336 L 67.943 636.171 70.957 639.604 C 72.615 641.492, 74.261 644.266, 74.614 645.768 C 74.968 647.271, 76.301 649.625, 77.576 651 C 78.851 652.375, 80.644 655.300, 81.562 657.500 C 82.479 659.700, 84.753 663.189, 86.615 665.253 L 90 669.006 90 671.480 L 90 673.954 92.414 675.536 C 93.741 676.405, 95.585 678.712, 96.510 680.662 C 97.435 682.611, 99.664 685.848, 101.463 687.853 C 103.263 689.859, 105.070 692.625, 105.479 694 C 105.889 695.375, 107.234 697.400, 108.468 698.500 C 109.703 699.600, 111.672 702.383, 112.843 704.684 C 114.015 706.985, 115.785 709.460, 116.778 710.184 C 117.770 710.908, 119.676 713.075, 121.014 715 C 122.352 716.925, 124.471 719.320, 125.723 720.323 C 126.975 721.325, 128 722.808, 128 723.618 C 128 724.428, 129.145 726.236, 130.544 727.635 C 131.943 729.034, 134.233 731.992, 135.632 734.209 C 137.032 736.426, 139.374 739.485, 140.838 741.007 C 142.302 742.528, 145.525 746.079, 148 748.898 C 150.475 751.717, 154.412 756.002, 156.750 758.422 C 159.088 760.842, 161 763.259, 161 763.794 C 161 764.329, 161.889 764.999, 162.975 765.283 L 164.949 765.799 166.973 769.230 C 168.086 771.117, 170.115 773.259, 171.482 773.990 C 172.849 774.722, 174.227 776.139, 174.544 777.140 C 174.862 778.140, 176.409 779.719, 177.982 780.649 C 179.556 781.578, 181.425 783.426, 182.136 784.755 C 182.847 786.083, 184.675 787.815, 186.198 788.602 L 188.966 790.034 190.509 793.017 L 192.051 796 193.475 796 C 194.258 796, 196.120 797.602, 197.613 799.559 C 199.106 801.516, 201.507 803.728, 202.949 804.474 C 204.391 805.219, 206.177 806.963, 206.919 808.349 L 208.267 810.868 211 812 C 212.503 812.623, 214.288 814.170, 214.967 815.438 C 215.646 816.707, 217.938 818.721, 220.061 819.914 C 222.184 821.107, 224.798 823.199, 225.870 824.562 C 226.943 825.926, 229.181 827.516, 230.844 828.096 L 233.868 829.150 235.454 831.570 C 236.326 832.901, 238.493 834.597, 240.270 835.340 L 243.500 836.691 244.878 839.269 L 246.256 841.848 248.687 842.458 C 250.024 842.793, 253.004 844.794, 255.309 846.903 C 257.614 849.013, 260.625 851.084, 262 851.505 C 263.375 851.926, 265.556 853.533, 266.847 855.077 L 269.194 857.884 272.131 858.529 L 275.069 859.174 277.238 862.108 L 279.407 865.042 283.263 866.197 L 287.118 867.352 289.380 870.039 L 291.641 872.726 295.416 873.972 C 297.492 874.657, 300.386 876.433, 301.846 877.917 L 304.500 880.616 308.754 881.849 L 313.008 883.083 314.615 885.536 L 316.223 887.989 321.323 889.503 L 326.424 891.018 329.009 893.849 L 331.595 896.680 335.876 897.364 L 340.157 898.049 342.829 900.916 L 345.500 903.782 350.890 904.911 L 356.280 906.039 359.555 908.914 L 362.829 911.789 367.956 912.494 L 373.083 913.199 375.792 915.451 C 379.879 918.849, 381.961 919.684, 388.260 920.448 L 394.021 921.146 396.760 923.403 C 400.480 926.467, 402.298 927.067, 410.901 928.072 L 418.301 928.937 421.993 931.495 L 425.685 934.054 431.592 935.021 C 434.842 935.553, 439.256 935.991, 441.403 935.994 L 445.306 936 451.903 939.137 L 458.500 942.275 473 943.206 L 487.500 944.137 495 946.701 L 502.500 949.264 511 950.248 L 519.500 951.232 1023 951.891 L 1526.500 952.549 1533.500 954.659 C 1541.429 957.049, 1546.778 957.838, 1562.562 958.946 L 1573.623 959.722 1577.714 962.430 L 1581.805 965.137 1589.108 966.149 C 1596.647 967.194, 1600.709 968.740, 1602.923 971.408 L 1604.201 972.947 1607.850 973.558 C 1609.858 973.894, 1612.855 974.580, 1614.512 975.083 L 1617.524 975.998 1619.341 978.418 L 1621.159 980.839 1626.083 982.020 L 1631.007 983.201 1633.017 986.024 L 1635.027 988.847 1637.873 989.472 L 1640.719 990.097 1643.609 993.121 C 1645.199 994.784, 1648.142 997.069, 1650.149 998.200 C 1652.156 999.330, 1654.352 1001.288, 1655.027 1002.551 L 1656.256 1004.848 1658.695 1005.460 L 1661.134 1006.072 1662.817 1009.015 L 1664.500 1011.958 1667.297 1013.120 L 1670.094 1014.282 1671.496 1016.992 C 1672.267 1018.483, 1674.066 1020.469, 1675.494 1021.404 C 1676.923 1022.340, 1678.544 1024.100, 1679.097 1025.314 C 1679.651 1026.529, 1681.414 1028.275, 1683.016 1029.194 L 1685.928 1030.866 1686.540 1033.305 L 1687.152 1035.744 1689.560 1037.032 C 1690.884 1037.740, 1692.227 1039.140, 1692.545 1040.143 C 1692.864 1041.146, 1694.896 1043.810, 1697.062 1046.064 C 1699.228 1048.319, 1701 1050.651, 1701 1051.248 C 1701 1051.845, 1699.904 1053.496, 1698.565 1054.917 C 1697.226 1056.337, 1693.063 1060.731, 1689.315 1064.680 C 1685.567 1068.628, 1681.092 1073.353, 1679.370 1075.180 C 1677.649 1077.006, 1675.691 1079.018, 1675.020 1079.650 C 1674.349 1080.283, 1671.033 1083.557, 1667.650 1086.927 C 1664.268 1090.296, 1659.590 1094.729, 1657.255 1096.777 C 1654.920 1098.824, 1651.310 1102.188, 1649.233 1104.250 C 1647.156 1106.313, 1644.757 1108, 1643.902 1108 C 1643.048 1108, 1641.258 1109.186, 1639.924 1110.635 C 1638.591 1112.084, 1635.250 1114.285, 1632.500 1115.527 C 1629.750 1116.768, 1626.549 1118.889, 1625.387 1120.242 L 1623.274 1122.701 1618.887 1123.400 L 1614.500 1124.100 1611.271 1127.226 L 1608.041 1130.353 1601.451 1131.146 L 1594.861 1131.939 1591.899 1134.431 C 1588.327 1137.437, 1583.163 1138.987, 1576.693 1138.994 C 1571.606 1139, 1563.235 1140.719, 1561.414 1142.131 C 1560.816 1142.594, 1558.341 1143.767, 1555.914 1144.737 L 1551.500 1146.500 1048 1147.029 L 544.500 1147.558 532.074 1150.304 L 519.648 1153.051 501.574 1154.009 C 478.883 1155.211, 477.528 1155.411, 470.631 1158.568 L 464.971 1161.160 453.105 1161.993 L 441.238 1162.825 437.993 1164.663 C 436.209 1165.673, 433.728 1167.064, 432.480 1167.754 L 430.212 1169.008 422.356 1169.640 L 414.500 1170.273 408.980 1173.636 L 403.461 1177 400.480 1177.024 C 398.841 1177.037, 395.824 1177.437, 393.777 1177.913 L 390.053 1178.777 386.997 1181.349 L 383.941 1183.920 380.221 1184.528 C 371.916 1185.883, 370.724 1186.302, 367.676 1188.934 L 364.500 1191.677 358.500 1192.834 L 352.500 1193.992 350.496 1196.453 L 348.493 1198.915 343.084 1200.299 L 337.675 1201.683 336.046 1203.695 C 333.953 1206.279, 331.414 1207.572, 326.791 1208.406 L 323.083 1209.075 321.054 1211.924 L 319.026 1214.773 315.362 1215.460 L 311.699 1216.147 308.760 1219.086 C 305.258 1222.588, 302.807 1224, 300.231 1224 L 298.331 1224 295.765 1226.879 L 293.200 1229.758 288.600 1231.515 C 286.070 1232.481, 284 1233.643, 284 1234.097 C 284 1235.570, 279.673 1239, 277.814 1239 L 276.005 1239 272.308 1242.486 C 270.275 1244.404, 267.161 1246.452, 265.388 1247.037 L 262.164 1248.101 260.504 1250.634 L 258.844 1253.167 255.442 1254.589 C 253.570 1255.371, 251.332 1257.090, 250.467 1258.410 L 248.895 1260.810 246.464 1261.420 C 245.127 1261.755, 241.761 1264.048, 238.983 1266.515 C 236.206 1268.982, 233.345 1271, 232.627 1271 C 231.909 1271, 230.805 1272.132, 230.175 1273.515 L 229.029 1276.029 226.265 1277.228 C 224.744 1277.888, 221.835 1280.019, 219.800 1281.964 C 217.765 1283.909, 214.390 1286.955, 212.300 1288.732 C 210.210 1290.510, 206.516 1293.773, 204.091 1295.982 C 201.666 1298.192, 199.391 1300, 199.036 1300 C 198.159 1300, 170.486 1327.369, 160.187 1338.421 C 155.615 1343.328, 151.223 1348.602, 150.427 1350.142 C 149.631 1351.681, 148.102 1353.410, 147.030 1353.984 C 145.958 1354.558, 144.367 1356.531, 143.495 1358.369 L 141.910 1361.710 139.455 1363.024 C 138.105 1363.747, 137 1364.883, 137 1365.548 C 137 1366.214, 135.313 1368.584, 133.250 1370.815 C 126.635 1377.971, 121.351 1384.431, 120.011 1387 C 119.294 1388.375, 117.423 1390.978, 115.853 1392.785 C 114.284 1394.591, 113 1396.689, 113 1397.446 C 113 1398.203, 111.692 1399.923, 110.093 1401.268 C 108.495 1402.613, 106.251 1405.548, 105.107 1407.791 C 103.963 1410.033, 102.122 1412.501, 101.016 1413.276 C 99.911 1414.050, 98.494 1416.218, 97.869 1418.092 C 97.244 1419.966, 95.493 1422.850, 93.978 1424.500 C 92.463 1426.150, 90.436 1429.075, 89.473 1431 C 88.510 1432.925, 86.435 1435.978, 84.861 1437.785 L 82 1441.070 82 1443.032 L 82 1444.994 78.641 1448.747 L 75.282 1452.500 73.998 1456.500 C 73.292 1458.700, 71.447 1461.957, 69.899 1463.737 L 67.084 1466.974 66.046 1470.828 C 65.475 1472.948, 64.126 1475.481, 63.047 1476.457 C 61.969 1477.433, 59.917 1481.291, 58.489 1485.030 L 55.891 1491.828 54.509 1492.358 L 53.128 1492.888 51.166 1499.429 L 49.204 1505.969 46.752 1508.883 L 44.300 1511.797 43.142 1517.685 L 41.983 1523.572 39.143 1526.682 L 36.303 1529.791 35.686 1535.005 L 35.068 1540.218 31.966 1545.053 L 28.864 1549.887 28.023 1555.840 C 27.166 1561.899, 26.130 1564.524, 22.817 1569.023 L 20.960 1571.546 20.422 1577.023 C 19.781 1583.545, 18.002 1591, 17.086 1591 C 16.726 1591, 15.659 1592.307, 14.716 1593.904 L 13 1596.809 13 1600.721 C 13 1602.872, 12.519 1607.303, 11.930 1610.566 L 10.860 1616.500 8.325 1620.387 L 5.790 1624.274 4.931 1633.887 C 4.458 1639.174, 4.055 1644.555, 4.036 1645.844 L 4 1648.187 2 1648.710 L 0 1649.233 -0 1873.619 L -0 2098.005 193.582 2097.753 L 387.163 2097.500 387.106 1999 L 387.049 1900.500 387.866 1882.862 L 388.683 1865.224 391.716 1859.850 L 394.748 1854.476 395.458 1848.366 L 396.167 1842.255 398.333 1838.970 C 399.525 1837.163, 401.285 1834.518, 402.245 1833.093 C 403.204 1831.667, 403.992 1829.655, 403.995 1828.621 L 404 1826.742 407.477 1822.621 C 409.389 1820.355, 412.426 1816.752, 414.227 1814.616 C 420.459 1807.221, 435.938 1792.154, 437.965 1791.511 C 439.084 1791.156, 440 1790.507, 440 1790.069 C 440 1788.593, 445.258 1784, 446.948 1784 L 448.624 1784 450.729 1781.153 L 452.833 1778.307 457.493 1777.002 L 462.152 1775.697 463.590 1773.503 C 465.237 1770.989, 469.082 1769, 472.297 1768.999 L 474.500 1768.998 478.386 1765.540 L 482.271 1762.082 486.886 1761.405 C 493.043 1760.501, 495.868 1759.369, 497.851 1757.012 L 499.500 1755.051 509.183 1753.641 L 518.867 1752.231 521.693 1750.219 C 525.842 1747.264, 530.967 1746.269, 545.667 1745.566 C 552.910 1745.219, 562.360 1744.236, 566.667 1743.382 C 570.975 1742.527, 578.550 1741.114, 583.500 1740.241 L 592.500 1738.653 1106.500 1738.043 L 1620.500 1737.433 1626.500 1735.814 C 1629.800 1734.923, 1635.425 1733.502, 1639 1732.654 L 1645.500 1731.114 1661.128 1730.185 L 1676.756 1729.257 1679.628 1727.694 C 1684.938 1724.803, 1691.447 1723.141, 1699.816 1722.540 L 1708.133 1721.942 1713.411 1718.963 L 1718.690 1715.984 1725.699 1715.104 L 1732.708 1714.224 1736.871 1711.208 L 1741.035 1708.192 1746.965 1707.504 L 1752.896 1706.816 1755.866 1703.977 L 1758.836 1701.139 1762.668 1700.075 C 1764.776 1699.490, 1767.116 1699.009, 1767.868 1699.006 C 1768.620 1699.003, 1770.752 1697.669, 1772.605 1696.042 L 1775.974 1693.084 1780.039 1691.989 L 1784.105 1690.895 1786.208 1688.476 L 1788.311 1686.058 1792.985 1684.505 L 1797.659 1682.953 1799.795 1680.063 L 1801.931 1677.174 1805.044 1676.490 L 1808.157 1675.807 1810.669 1672.987 C 1812.051 1671.436, 1814.587 1669.585, 1816.306 1668.873 C 1818.025 1668.161, 1820.734 1666.095, 1822.327 1664.281 C 1823.920 1662.466, 1826.274 1660.718, 1827.559 1660.396 L 1829.895 1659.810 1831.496 1657.365 C 1832.377 1656.021, 1834.646 1654.183, 1836.539 1653.280 C 1838.431 1652.378, 1840.218 1650.889, 1840.509 1649.971 C 1840.800 1649.054, 1842.144 1647.800, 1843.495 1647.184 C 1845.860 1646.107, 1850.691 1641.966, 1859.462 1633.500 C 1861.741 1631.300, 1864.482 1628.756, 1865.553 1627.846 C 1868.991 1624.924, 1884.334 1607.979, 1886.062 1605.193 C 1886.982 1603.712, 1888.919 1601.409, 1890.367 1600.076 C 1891.815 1598.742, 1893 1597.126, 1893 1596.485 C 1893 1595.843, 1894.795 1593.334, 1896.990 1590.909 C 1899.184 1588.484, 1902.123 1585.221, 1903.520 1583.658 C 1904.917 1582.094, 1907.163 1578.638, 1908.512 1575.977 C 1909.860 1573.316, 1911.799 1570.545, 1912.820 1569.820 C 1913.841 1569.094, 1915.005 1567.150, 1915.406 1565.500 L 1916.135 1562.500 1919.485 1559 L 1922.834 1555.500 1923.920 1551.384 L 1925.005 1547.268 1927.584 1544.689 L 1930.163 1542.110 1931.593 1537.357 C 1932.380 1534.743, 1933.897 1531.674, 1934.964 1530.538 C 1937.231 1528.125, 1940 1521.884, 1940 1519.187 C 1940 1518.155, 1940.946 1516.454, 1942.102 1515.407 C 1944.933 1512.846, 1947 1508.664, 1947 1505.500 C 1947 1502.336, 1949.067 1498.154, 1951.898 1495.593 L 1954 1493.690 1954 1490.711 C 1954 1485.951, 1956.137 1479.717, 1958.747 1476.862 L 1961.159 1474.225 1962.071 1466.963 L 1962.983 1459.702 1966.045 1454.930 L 1969.107 1450.159 1969.999 1441.506 L 1970.892 1432.853 1973.919 1427.489 L 1976.946 1422.125 1977.875 1410.813 L 1978.804 1399.500 1981.902 1391.833 L 1985 1384.167 1985 1377.233 C 1985 1373.419, 1985.470 1368.951, 1986.044 1367.305 L 1987.087 1364.312 2001.944 1364.788 L 2016.800 1365.265 2019.886 1364.190 L 2022.971 1363.114 2024.446 1364.589 C 2026.009 1366.152, 2026.575 1368.808, 2027.410 1378.500 L 2027.927 1384.500 2030.576 1389.978 L 2033.224 1395.456 2034.245 1406.478 L 2035.265 1417.500 2038.273 1423.325 L 2041.280 1429.149 2042.086 1436.825 C 2042.529 1441.046, 2042.916 1444.803, 2042.946 1445.173 C 2042.976 1445.544, 2044.193 1447.264, 2045.650 1448.996 L 2048.300 1452.146 2049.687 1460.807 L 2051.074 1469.468 2053.636 1472.142 L 2056.197 1474.815 2057.583 1482.086 L 2058.968 1489.357 2061.383 1491.929 L 2063.798 1494.500 2065.077 1500.500 L 2066.356 1506.500 2069.090 1509.684 C 2071.950 1513.016, 2072.436 1514.183, 2073.432 1520.113 L 2074.039 1523.725 2076.122 1525.610 C 2078.721 1527.962, 2081 1532.282, 2081 1534.856 L 2081 1536.811 2084.423 1540.908 C 2086.306 1543.162, 2088.400 1546.681, 2089.075 1548.729 C 2089.751 1550.776, 2091.248 1553.195, 2092.402 1554.104 L 2094.500 1555.756 2095.813 1560.217 L 2097.126 1564.679 2100.563 1567.921 L 2104 1571.162 2104 1572.933 C 2104 1573.907, 2105.336 1576.102, 2106.969 1577.811 C 2108.603 1579.520, 2110.569 1582.399, 2111.339 1584.209 C 2112.109 1586.019, 2114.624 1589.525, 2116.929 1592 C 2125.775 1601.500, 2127 1602.980, 2127 1604.166 C 2127 1604.839, 2128.371 1606.764, 2130.046 1608.445 C 2131.722 1610.125, 2136.601 1615.550, 2140.889 1620.500 C 2149.545 1630.491, 2164.855 1646, 2166.064 1646 C 2166.800 1646, 2172.805 1651.337, 2179.555 1657.989 C 2181.236 1659.645, 2183.360 1661, 2184.275 1661 L 2185.940 1661 2188.174 1664.022 C 2189.403 1665.683, 2191.993 1667.978, 2193.929 1669.121 C 2195.866 1670.264, 2198.050 1672.054, 2198.783 1673.100 C 2199.516 1674.147, 2202.101 1675.907, 2204.529 1677.013 L 2208.942 1679.024 2209.987 1680.977 L 2211.033 1682.929 2215.073 1684.140 L 2219.113 1685.351 2221.107 1688.150 L 2223.101 1690.950 2226.985 1691.996 L 2230.870 1693.042 2233.682 1696.021 L 2236.494 1699 2238.279 1699 C 2241.393 1699, 2247.125 1701.889, 2249.171 1704.490 L 2251.145 1707 2253.323 1707.006 C 2257.289 1707.016, 2262.663 1708.978, 2265.573 1711.478 L 2268.442 1713.944 2272.971 1714.533 C 2278.978 1715.314, 2286.023 1717.896, 2286.658 1719.550 C 2287.243 1721.075, 2289.475 1721.639, 2300.212 1722.979 L 2307.925 1723.941 2313.184 1726.692 L 2318.444 1729.442 2330.972 1730.267 L 2343.500 1731.092 2351.500 1733.491 C 2355.900 1734.810, 2363.020 1736.365, 2367.322 1736.945 L 2375.145 1738 2870.322 1738.011 L 3365.500 1738.021 3379 1739.468 C 3386.425 1740.264, 3397 1741.810, 3402.500 1742.903 L 3412.500 1744.892 3427.596 1745.842 L 3442.692 1746.791 3448.772 1749.808 L 3454.853 1752.825 3461.676 1753.523 C 3468.242 1754.195, 3475 1756.442, 3475 1757.953 C 3475 1759.140, 3479.404 1760.789, 3484.620 1761.555 L 3489.500 1762.272 3493.098 1765.496 L 3496.696 1768.720 3500.598 1769.436 L 3504.500 1770.152 3507.500 1772.958 C 3509.150 1774.500, 3512.126 1776.281, 3514.114 1776.914 L 3517.727 1778.065 3520.277 1780.926 L 3522.826 1783.788 3526.258 1784.920 L 3529.690 1786.053 3531.005 1788.510 C 3531.729 1789.861, 3533.261 1791.263, 3534.410 1791.625 C 3535.560 1791.988, 3540.887 1796.832, 3546.250 1802.392 C 3551.612 1807.951, 3557.084 1813.625, 3558.408 1815 C 3559.733 1816.375, 3561.551 1819.284, 3562.447 1821.465 C 3563.344 1823.646, 3564.453 1825.671, 3564.912 1825.965 C 3565.371 1826.259, 3566.928 1828.250, 3568.373 1830.390 L 3571 1834.279 3571 1836.985 L 3571 1839.690 3573.138 1841.595 C 3574.314 1842.643, 3575.889 1844.948, 3576.638 1846.718 L 3578 1849.936 3578 1854.943 L 3578 1859.950 3581.250 1866.725 L 3584.500 1873.500 3584.771 1985.753 L 3585.042 2098.005 3778.771 2097.753 L 3972.500 2097.500 3972.583 1872.500 C 3972.629 1748.750, 3972.404 1650.200, 3972.083 1653.500 L 3971.500 1659.500 3970.385 1657.500 L 3969.270 1655.500 3968.601 1644.713 L 3967.932 1633.926 3964.949 1628.056 L 3961.966 1622.186 3961.049 1612.492 L 3960.132 1602.798 3957.367 1598.809 L 3954.603 1594.820 3953.391 1585.961 L 3952.180 1577.102 3949.519 1573.614 L 3946.859 1570.127 3945.561 1562.017 L 3944.262 1553.908 3942.256 1551.704 C 3939.231 1548.381, 3938.319 1546.059, 3937.552 1539.740 L 3936.854 1533.979 3934.455 1531.129 C 3931.553 1527.680, 3930 1523.827, 3930 1520.076 L 3930 1517.281 3926.524 1512.891 L 3923.049 1508.500 3922.403 1504.200 L 3921.758 1499.899 3918.379 1495.855 L 3915 1491.811 3915 1489.340 C 3915 1486.302, 3913.576 1483.500, 3909.853 1479.215 L 3907 1475.930 3907 1473.916 C 3907 1471.281, 3904.678 1466.936, 3902.132 1464.806 L 3900.107 1463.111 3899.046 1459.172 C 3898.463 1457.006, 3897.279 1454.646, 3896.415 1453.929 C 3895.551 1453.212, 3893.779 1450.524, 3892.477 1447.955 C 3891.176 1445.387, 3888.926 1441.878, 3887.479 1440.157 C 3886.031 1438.437, 3884.431 1435.560, 3883.922 1433.765 L 3882.998 1430.500 3878.999 1426.080 C 3876.800 1423.649, 3875 1421.146, 3875 1420.517 C 3875 1419.889, 3873.672 1418.102, 3872.049 1416.547 L 3869.097 1413.719 3868.517 1411.076 C 3868.197 1409.623, 3866.337 1406.648, 3864.382 1404.467 C 3862.428 1402.285, 3860.235 1399.375, 3859.509 1398 C 3858.784 1396.625, 3857.023 1394.490, 3855.595 1393.257 C 3854.168 1392.023, 3853 1390.372, 3853 1389.588 C 3853 1388.804, 3851.425 1386.677, 3849.500 1384.861 C 3847.575 1383.045, 3846 1381.010, 3846 1380.338 C 3846 1379.666, 3843.763 1376.560, 3841.028 1373.435 C 3838.294 1370.310, 3835.811 1366.981, 3835.512 1366.037 C 3835.212 1365.093, 3833.899 1363.749, 3832.594 1363.050 C 3831.289 1362.352, 3829.742 1360.729, 3829.156 1359.443 C 3828.570 1358.158, 3826.941 1356.352, 3825.534 1355.431 C 3824.128 1354.509, 3822.278 1352.280, 3821.422 1350.477 L 3819.866 1347.198 3817.938 1346.694 C 3816.878 1346.417, 3815.719 1345.360, 3815.364 1344.345 C 3815.008 1343.330, 3813.093 1340.825, 3811.108 1338.777 C 3809.124 1336.729, 3806.375 1333.886, 3805 1332.460 C 3803.625 1331.033, 3802.203 1329.558, 3801.841 1329.183 C 3794.673 1321.759, 3791 1317.631, 3791 1317 C 3791 1316.569, 3789.883 1315.937, 3788.518 1315.594 L 3786.036 1314.971 3784.523 1312.045 C 3783.691 1310.436, 3781.657 1308.320, 3780.004 1307.343 C 3778.350 1306.366, 3776.731 1304.726, 3776.404 1303.699 L 3775.811 1301.830 3772.875 1300.807 L 3769.939 1299.783 3768.517 1297.032 L 3767.094 1294.282 3764.238 1293.098 L 3761.381 1291.915 3759.634 1288.958 C 3758.673 1287.331, 3757.270 1286, 3756.516 1286 C 3755.762 1286, 3753.875 1284.483, 3752.323 1282.628 C 3750.770 1280.773, 3748.032 1278.509, 3746.239 1277.597 C 3744.445 1276.684, 3742.420 1275.014, 3741.739 1273.885 C 3741.057 1272.757, 3738.819 1270.965, 3736.765 1269.904 C 3734.710 1268.843, 3732.331 1266.908, 3731.477 1265.605 L 3729.924 1263.235 3727.044 1262.659 L 3724.165 1262.083 3721.464 1258.542 C 3719.978 1256.594, 3718.131 1255, 3717.359 1255 C 3716.587 1255, 3714.039 1253.233, 3711.696 1251.074 C 3709.353 1248.914, 3706.212 1246.840, 3704.715 1246.465 L 3701.994 1245.782 3699.599 1242.936 L 3697.204 1240.089 3694.527 1239.417 C 3693.054 1239.048, 3690.420 1237.291, 3688.674 1235.513 L 3685.500 1232.281 3681.766 1231.068 L 3678.031 1229.855 3676.070 1227.362 L 3674.109 1224.869 3670.444 1223.857 L 3666.778 1222.845 3663.356 1219.422 L 3659.933 1216 3657.527 1216 L 3655.122 1216 3650.500 1212 L 3645.878 1208 3642.942 1208 L 3640.006 1208 3636.229 1204.588 L 3632.452 1201.175 3628.609 1200.454 L 3624.766 1199.734 3621.496 1196.862 L 3618.226 1193.991 3612.976 1192.996 C 3610.089 1192.448, 3607.579 1192, 3607.398 1192 C 3607.218 1192, 3605.509 1190.630, 3603.602 1188.955 L 3600.134 1185.910 3593.817 1184.896 L 3587.500 1183.883 3584.983 1181.477 L 3582.466 1179.072 3577.483 1178.059 C 3574.742 1177.502, 3570.826 1176.793, 3568.779 1176.483 L 3565.059 1175.920 3561.981 1173.330 L 3558.902 1170.740 3549.701 1169.802 L 3540.500 1168.865 3535.532 1165.838 L 3530.564 1162.811 3519.032 1161.942 C 3506.058 1160.963, 3503.573 1160.442, 3499.980 1157.944 C 3496.788 1155.724, 3492.866 1155.211, 3469.653 1153.971 L 3450.806 1152.965 3439.153 1150.245 L 3427.500 1147.525 2927.500 1147.010 L 2427.500 1146.495 2424 1145.106 C 2422.075 1144.342, 2419.825 1143.174, 2419 1142.510 C 2417.080 1140.966, 2410.115 1139.274, 2402.645 1138.536 C 2396.489 1137.928, 2393.913 1136.929, 2390.638 1133.877 L 2388.650 1132.025 2385.075 1131.435 C 2378.835 1130.406, 2375.876 1129.112, 2373.838 1126.521 L 2371.855 1124 2369.677 1123.996 C 2367.068 1123.992, 2361 1120.469, 2361 1118.958 C 2361 1118.369, 2358.900 1116.959, 2356.334 1115.824 L 2351.669 1113.760 2349.246 1110.880 C 2347.913 1109.296, 2346.201 1108, 2345.441 1108 C 2344.681 1108, 2343.034 1106.606, 2341.780 1104.903 C 2340.526 1103.199, 2338.270 1101.166, 2336.767 1100.386 C 2335.264 1099.605, 2333.390 1097.720, 2332.602 1096.198 C 2331.815 1094.675, 2329.995 1092.800, 2328.558 1092.031 L 2325.946 1090.633 2325.397 1088.445 L 2324.848 1086.256 2322.333 1084.911 L 2319.819 1083.565 2317.864 1079.734 C 2316.789 1077.627, 2315.267 1075.656, 2314.481 1075.354 C 2313.695 1075.053, 2311.704 1072.616, 2310.057 1069.938 C 2308.410 1067.261, 2305.698 1063.855, 2304.031 1062.370 C 2302.364 1060.885, 2301 1059.147, 2301 1058.509 C 2301 1057.871, 2299.875 1056.292, 2298.500 1055 C 2295.348 1052.039, 2295.341 1049.968, 2298.471 1047.027 C 2299.830 1045.751, 2301.441 1043.194, 2302.051 1041.345 L 2303.160 1037.985 2305.077 1036.959 C 2306.131 1036.395, 2307.887 1034.181, 2308.980 1032.039 L 2310.966 1028.145 2312.983 1027.505 C 2314.092 1027.153, 2315 1026.425, 2315 1025.886 C 2315 1023.686, 2346.504 991.825, 2350.957 989.522 C 2352.620 988.662, 2354.709 986.847, 2355.600 985.488 L 2357.218 983.018 2361.334 981.910 L 2365.451 980.802 2366.786 978.895 C 2368.509 976.435, 2373.240 974, 2376.295 974 L 2378.690 974 2380.593 971.898 C 2383.441 968.750, 2386.870 967.285, 2393.254 966.487 L 2399.006 965.769 2403.615 962.716 L 2408.223 959.664 2418.353 958.879 C 2431.741 957.842, 2435.267 957.240, 2443 954.669 L 2449.500 952.509 2950.500 951.863 L 3451.500 951.216 3460.500 950.249 L 3469.500 949.281 3474 947.564 C 3480.775 944.979, 3486.040 944.088, 3500.415 943.093 L 3513.500 942.188 3518.867 939.446 L 3524.235 936.704 3533.867 935.742 L 3543.500 934.780 3548.875 931.745 L 3554.251 928.710 3561.684 927.982 L 3569.118 927.254 3573.309 924.251 L 3577.500 921.248 3583 920.564 C 3589.294 919.781, 3594 918.183, 3594 916.830 C 3594 915.377, 3602.145 912.046, 3605.757 912.022 L 3609.013 912 3611.124 909.573 C 3613.395 906.961, 3616.519 905.512, 3621.880 904.583 L 3625.260 903.998 3629.133 900.499 L 3633.006 897 3636 897 L 3638.994 897 3642.747 893.625 L 3646.500 890.251 3650 889.522 L 3653.500 888.793 3656.504 885.939 C 3658.156 884.369, 3661.463 882.395, 3663.852 881.552 L 3668.197 880.019 3670.061 877.650 L 3671.924 875.281 3676.462 874.011 C 3678.958 873.312, 3681 872.410, 3681 872.006 C 3681 871.603, 3682.186 870.086, 3683.636 868.636 L 3686.273 866 3688.416 866 L 3690.560 866 3693.788 862.578 L 3697.016 859.155 3699.938 858.514 L 3702.860 857.872 3705.419 854.518 L 3707.977 851.164 3710.915 850.519 L 3713.853 849.873 3715.465 847.413 L 3717.077 844.953 3721.051 843.363 L 3725.026 841.773 3727.079 838.889 L 3729.133 836.005 3731.577 835.391 L 3734.022 834.778 3736.160 831.776 L 3738.297 828.774 3741.502 827.435 C 3743.265 826.698, 3745.436 824.983, 3746.327 823.624 C 3747.218 822.264, 3748.902 820.849, 3750.069 820.478 C 3751.237 820.107, 3753.888 818.161, 3755.960 816.152 C 3758.032 814.143, 3761.882 810.700, 3764.514 808.500 C 3769.762 804.115, 3776.628 797.899, 3780.532 794 C 3781.909 792.625, 3783.720 790.825, 3784.557 790 C 3785.394 789.175, 3787.073 787.442, 3788.289 786.149 C 3789.505 784.856, 3791.346 783.056, 3792.381 782.149 C 3797.049 778.057, 3817.105 756.857, 3821.848 751 C 3823.853 748.525, 3826.452 745.600, 3827.624 744.500 C 3828.796 743.400, 3830.332 741.384, 3831.036 740.019 C 3831.741 738.654, 3833.371 736.709, 3834.659 735.696 C 3835.946 734.684, 3837 733.192, 3837 732.383 C 3837 731.573, 3838.561 729.243, 3840.469 727.205 C 3848.964 718.131, 3851.032 715.677, 3853.111 712.202 C 3854.329 710.166, 3856.347 707.574, 3857.595 706.441 C 3858.844 705.309, 3860.155 703.229, 3860.509 701.819 C 3860.863 700.408, 3862.694 697.621, 3864.576 695.625 C 3866.459 693.629, 3868 691.628, 3868 691.179 C 3868 690.731, 3869.576 688.594, 3871.502 686.432 C 3873.428 684.269, 3875.508 680.925, 3876.123 679 C 3876.738 677.075, 3878.247 674.600, 3879.477 673.500 C 3880.707 672.400, 3882.630 669.700, 3883.750 667.500 C 3884.870 665.300, 3886.716 662.660, 3887.852 661.632 C 3888.988 660.605, 3890.610 657.680, 3891.456 655.131 L 3892.995 650.498 3895.962 647.698 L 3898.929 644.898 3899.597 641.332 L 3900.266 637.766 3902.947 634.633 C 3904.422 632.910, 3906.403 629.418, 3907.350 626.872 C 3908.297 624.327, 3909.928 621.470, 3910.974 620.524 L 3912.876 618.802 3914.555 613.464 C 3915.479 610.528, 3917.144 607.150, 3918.255 605.957 C 3919.366 604.764, 3921.128 601.050, 3922.169 597.704 C 3923.210 594.359, 3925.398 589.604, 3927.031 587.139 L 3930 582.657 3930 580.394 C 3930 577.106, 3931.795 572.865, 3934.400 570 L 3936.674 567.500 3937.804 561.098 L 3938.935 554.697 3941.532 550.772 L 3944.130 546.847 3945.028 541.327 C 3946.225 533.970, 3946.846 532.190, 3949.731 527.830 L 3952.177 524.134 3953.142 516.317 L 3954.106 508.500 3957.171 503.057 L 3960.235 497.614 3960.947 489.014 L 3961.660 480.414 3964.824 473.716 L 3967.989 467.018 3968.639 456.759 C 3968.997 451.117, 3969.767 445.375, 3970.352 444 L 3971.414 441.500 3972.044 447 C 3972.390 450.025, 3972.747 350.688, 3972.837 226.250 L 3973 0 3780.059 0 L 3587.118 0 3586.309 1.250 L 3585.500 2.500 3585 115 L 3584.500 227.500 3581.614 233.476 L 3578.727 239.452 3577.833 247.448 L 3576.938 255.443 3573.469 260.480 C 3571.561 263.251, 3570 266.331, 3570 267.324 C 3570 269.137, 3568.266 273.064, 3567.052 274 C 3566.695 274.275, 3565.332 276.075, 3564.022 278 C 3561.140 282.236, 3554.974 289.200, 3546.109 298.234 C 3535.635 308.906, 3532.668 311.636, 3530.047 313.005 C 3528.698 313.710, 3526.170 315.798, 3524.429 317.644 C 3522.688 319.490, 3520.544 321, 3519.665 321 C 3518.786 321, 3516.542 322.524, 3514.679 324.387 L 3511.292 327.775 3507.150 328.475 L 3503.008 329.174 3501.235 331.428 C 3499.006 334.263, 3495.808 336, 3492.816 336.002 C 3490.472 336.003, 3486.226 338.024, 3481.712 341.286 L 3479.241 343.072 3472.870 344.096 L 3466.500 345.119 3462 347.961 L 3457.500 350.802 3446.103 351.889 L 3434.706 352.976 3431.331 354.967 L 3427.956 356.958 3421.728 357.965 C 3418.303 358.518, 3399.075 359.437, 3379 360.007 C 3358.925 360.577, 3335.300 361.504, 3326.500 362.067 L 3310.500 363.091 2855 363.418 L 2399.500 363.745 2390 364.831 C 2384.775 365.428, 2370.735 366.341, 2358.801 366.861 L 2337.102 367.807 2331.689 370.367 C 2324.656 373.694, 2319.025 374.945, 2310.946 374.976 L 2304.392 375 2299.525 378.086 L 2294.659 381.172 2286.359 382.384 L 2278.059 383.596 2275.779 385.673 C 2272.380 388.771, 2270.095 389.677, 2263.746 390.447 L 2257.993 391.145 2256.916 393.157 C 2255.674 395.478, 2250.243 398, 2246.487 398 L 2243.909 398 2241.414 400.495 C 2238.650 403.259, 2233.836 406, 2231.746 406 C 2231.001 406, 2228.866 407.575, 2227 409.500 L 2223.608 413 2221.738 413 C 2219.064 413, 2216.019 414.824, 2213.302 418.053 L 2210.946 420.853 2208.167 421.463 L 2205.388 422.074 2203.613 425.078 L 2201.838 428.082 2198.889 428.672 L 2195.939 429.262 2194.200 431.473 C 2193.243 432.689, 2190.669 434.829, 2188.480 436.229 C 2186.291 437.628, 2183.178 440.174, 2181.563 441.887 C 2179.948 443.599, 2178.060 445, 2177.369 445 C 2176.678 445, 2175.327 446.331, 2174.366 447.958 L 2172.619 450.915 2169.939 452.025 L 2167.259 453.135 2166.173 455.519 C 2165.576 456.831, 2163.814 458.562, 2162.258 459.367 C 2160.702 460.171, 2158.847 461.917, 2158.136 463.245 C 2157.425 464.574, 2155.502 466.454, 2153.862 467.422 L 2150.881 469.184 2149.958 471.610 L 2149.036 474.036 2146.500 475 L 2143.964 475.964 2143.027 478.430 C 2142.511 479.786, 2140.921 481.661, 2139.494 482.596 C 2138.066 483.532, 2136.224 485.600, 2135.401 487.192 L 2133.904 490.087 2131.471 491.195 C 2130.133 491.805, 2128.795 493.071, 2128.497 494.009 C 2128.199 494.948, 2126.123 497.692, 2123.883 500.108 C 2121.643 502.523, 2118.990 506.075, 2117.988 508 C 2116.986 509.925, 2115.229 512.066, 2114.083 512.758 L 2112 514.017 2112 516.058 L 2112 518.099 2108.449 521.755 C 2106.497 523.766, 2104.157 527.006, 2103.250 528.956 C 2102.343 530.905, 2100.643 533.400, 2099.472 534.500 L 2097.342 536.500 2096.162 540.647 L 2094.982 544.793 2093.497 545.363 C 2091.476 546.138, 2088.008 552.005, 2088.004 554.655 L 2088 556.811 2084.636 560.837 L 2081.272 564.864 2080.174 569.221 L 2079.077 573.579 2076.613 575.893 L 2074.150 578.208 2072.979 583.086 L 2071.809 587.963 2068.872 592.018 L 2065.934 596.073 2064.972 601.150 L 2064.009 606.226 2061.004 609.648 L 2058 613.070 2058 615.592 C 2058 616.979, 2057.515 620.040, 2056.923 622.393 L 2055.845 626.673 2053.483 629.421 C 2051.096 632.199, 2050.627 633.707, 2049.513 642.187 L 2048.896 646.874 2046.618 650.232 C 2043.608 654.666, 2042 659.458, 2042 663.990 C 2042 668.780, 2039.772 676.107, 2037.230 679.678 L 2035.221 682.500 2034.514 691.500 C 2033.589 703.285, 2032.382 708.654, 2029.866 712.188 L 2027.807 715.080 2027.272 725.290 L 2026.737 735.500 2025.746 736.750 L 2024.755 738 2006.078 738 L 1987.400 738 1986.200 736.800 L 1985 735.600 1985 726.876 L 1985 718.151 1981.882 710.364 L 1978.764 702.577 1977.888 691.538 L 1977.013 680.500 1973.928 674.586 L 1970.843 668.671 1969.970 660.209 L 1969.097 651.747 1966.366 647.807 L 1963.636 643.867 1962.349 635.781 L 1961.063 627.696 1959.156 625.598 C 1956.290 622.443, 1955.301 620.027, 1954.525 614.273 L 1953.819 609.047 1950.924 605.404 L 1948.029 601.762 1946.821 595.911 L 1945.612 590.061 1942.782 586.780 C 1941.225 584.976, 1939.737 582.488, 1939.475 581.250 C 1939.214 580.013, 1938.768 577.883, 1938.486 576.518 C 1938.203 575.153, 1936.673 572.558, 1935.087 570.752 L 1932.203 567.467 1931.004 562.983 L 1929.806 558.500 1927.780 556.597 C 1926.666 555.550, 1924.684 552.273, 1923.376 549.315 C 1922.067 546.356, 1920.346 543.686, 1919.550 543.381 L 1918.103 542.825 1916.541 538.123 L 1914.979 533.420 1911.489 530.129 C 1909.570 528.319, 1908 526.200, 1908 525.421 C 1908 524.642, 1906.425 522.335, 1904.500 520.294 C 1902.575 518.253, 1901 515.873, 1901 515.005 C 1901 514.137, 1898.972 511.193, 1896.493 508.463 C 1894.014 505.733, 1890.302 501.557, 1888.243 499.182 C 1886.184 496.807, 1882.813 493.197, 1880.750 491.160 C 1878.688 489.123, 1876.999 487.016, 1876.997 486.478 C 1876.996 485.940, 1875.673 484.615, 1874.059 483.533 C 1872.445 482.452, 1870.646 480.518, 1870.062 479.237 C 1869.478 477.956, 1867.667 476.142, 1866.037 475.206 C 1864.407 474.271, 1862.510 472.453, 1861.822 471.167 C 1861.134 469.882, 1859.298 468.171, 1857.742 467.367 C 1856.186 466.562, 1854.411 464.800, 1853.796 463.452 C 1853.182 462.103, 1852.254 461, 1851.734 461 C 1851.215 461, 1848.925 459.232, 1846.645 457.071 C 1836.342 447.304, 1833.303 444.702, 1830.500 443.253 C 1828.850 442.400, 1826.885 440.831, 1826.133 439.766 C 1825.382 438.700, 1822.835 437.001, 1820.474 435.989 L 1816.182 434.149 1815.563 432.200 L 1814.945 430.251 1810.554 428.574 L 1806.162 426.897 1804.617 424.538 L 1803.071 422.178 1799.285 420.988 L 1795.500 419.798 1793 417.052 L 1790.500 414.306 1786.080 413.062 L 1781.660 411.818 1779.107 408.909 L 1776.555 406 1774.745 406 C 1771.839 406, 1765.775 403.124, 1764.329 401.059 L 1762.998 399.158 1759.999 398.579 C 1758.349 398.261, 1755.617 397.732, 1753.926 397.404 L 1750.851 396.808 1747.638 393.987 L 1744.424 391.165 1736.496 390.063 L 1728.568 388.960 1725.838 386.345 L 1723.108 383.729 1714.304 382.809 L 1705.500 381.889 1699.500 378.813 L 1693.500 375.736 1681.500 374.940 C 1670.464 374.207, 1667.029 373.541, 1661.500 371.062 C 1660.400 370.568, 1657.925 369.653, 1656 369.028 L 1652.500 367.891 1626 366.879 C 1611.425 366.322, 1594.100 365.402, 1587.500 364.835 L 1575.500 363.804 1110 363.124 L 644.500 362.444 621 361.213 C 608.075 360.536, 586.216 359.605, 572.424 359.144 L 547.348 358.306 541.470 355.615 L 535.592 352.924 525.056 351.864 L 514.520 350.803 511.510 349.281 C 509.855 348.444, 507.819 347.165, 506.988 346.440 C 505.794 345.399, 495.370 343.045, 491.785 343.008 C 491.391 343.003, 489.468 341.593, 487.510 339.874 L 483.950 336.749 479.515 336.249 L 475.081 335.749 471.379 332.456 L 467.677 329.162 464.188 328.507 L 460.699 327.853 457.740 324.894 C 456.113 323.267, 453.212 321.280, 451.293 320.478 C 449.374 319.676, 446.872 317.836, 445.734 316.389 C 444.596 314.942, 442.174 313.135, 440.352 312.374 L 437.039 310.990 435.345 308.404 C 434.413 306.981, 432.586 305.413, 431.284 304.918 L 428.917 304.018 427.209 301.006 C 426.269 299.350, 424.696 297.735, 423.712 297.418 C 422.729 297.101, 420.798 295.056, 419.420 292.873 C 418.042 290.690, 416.279 288.661, 415.502 288.362 C 414.725 288.064, 412.774 285.498, 411.167 282.660 C 409.560 279.822, 407.308 276.660, 406.164 275.632 L 404.083 273.765 402.461 268.882 C 401.569 266.197, 400.522 264, 400.135 264 C 398.536 264, 396.026 257.922, 395.017 251.609 L 393.940 244.867 391.269 240.830 L 388.598 236.794 387.855 220.147 C 387.446 210.991, 387.101 159.175, 387.087 105 C 387.073 50.825, 386.767 5.038, 386.406 3.250 L 385.750 0 192.875 0 L 0 0 -0 226.607 M 0.491 227 C 0.491 351.575, 0.608 402.538, 0.750 340.250 C 0.892 277.963, 0.892 176.038, 0.750 113.750 C 0.608 51.463, 0.491 102.425, 0.491 227 M 0.491 1873.500 C 0.491 1997.250, 0.608 2047.726, 0.750 1985.670 C 0.892 1923.613, 0.892 1822.363, 0.750 1760.670 C 0.608 1698.976, 0.491 1749.750, 0.491 1873.500" stroke="none" fill="#000000" fill-rule="evenodd"/></svg>